<mxfile host="app.diagrams.net" modified="2024-06-17T10:13:01.637Z" agent="Mozilla/5.0 (Windows NT 10.0; Win64; x64) AppleWebKit/537.36 (KHTML, like Gecko) Chrome/126.0.0.0 Safari/537.36 Edg/126.0.0.0" etag="qSEbF-3vSEDgwT-pU2f0" version="24.5.4" type="device">
  <diagram name="Page-1" id="Gbl3NZyBR8y0WwpyT6zp">
    <mxGraphModel dx="850" dy="378" grid="1" gridSize="10" guides="1" tooltips="1" connect="1" arrows="1" fold="1" page="1" pageScale="1" pageWidth="850" pageHeight="1100" math="0" shadow="0">
      <root>
        <mxCell id="0" />
        <mxCell id="1" parent="0" />
        <mxCell id="Jk30d8GXU3tT7Ml_PZad-1" value="Admin" style="rounded=0;whiteSpace=wrap;html=1;" vertex="1" parent="1">
          <mxGeometry x="120" y="190" width="120" height="60" as="geometry" />
        </mxCell>
        <mxCell id="Jk30d8GXU3tT7Ml_PZad-17" style="edgeStyle=orthogonalEdgeStyle;rounded=0;orthogonalLoop=1;jettySize=auto;html=1;exitX=0.5;exitY=0;exitDx=0;exitDy=0;entryX=0.5;entryY=0;entryDx=0;entryDy=0;" edge="1" parent="1">
          <mxGeometry relative="1" as="geometry">
            <mxPoint x="430" y="165" as="targetPoint" />
            <mxPoint x="694.9999999999999" y="190" as="sourcePoint" />
            <Array as="points">
              <mxPoint x="695" y="126" />
              <mxPoint x="430" y="126" />
            </Array>
          </mxGeometry>
        </mxCell>
        <mxCell id="Jk30d8GXU3tT7Ml_PZad-2" value="User" style="rounded=0;whiteSpace=wrap;html=1;" vertex="1" parent="1">
          <mxGeometry x="640" y="190" width="120" height="60" as="geometry" />
        </mxCell>
        <mxCell id="Jk30d8GXU3tT7Ml_PZad-12" style="edgeStyle=orthogonalEdgeStyle;rounded=0;orthogonalLoop=1;jettySize=auto;html=1;entryX=0.5;entryY=1;entryDx=0;entryDy=0;" edge="1" parent="1" source="Jk30d8GXU3tT7Ml_PZad-3" target="Jk30d8GXU3tT7Ml_PZad-1">
          <mxGeometry relative="1" as="geometry">
            <mxPoint x="435" y="350" as="targetPoint" />
            <Array as="points">
              <mxPoint x="435" y="310" />
              <mxPoint x="180" y="310" />
            </Array>
          </mxGeometry>
        </mxCell>
        <mxCell id="Jk30d8GXU3tT7Ml_PZad-13" style="edgeStyle=orthogonalEdgeStyle;rounded=0;orthogonalLoop=1;jettySize=auto;html=1;entryX=-0.003;entryY=0.102;entryDx=0;entryDy=0;entryPerimeter=0;" edge="1" parent="1" source="Jk30d8GXU3tT7Ml_PZad-3" target="Jk30d8GXU3tT7Ml_PZad-2">
          <mxGeometry relative="1" as="geometry">
            <Array as="points">
              <mxPoint x="530" y="196" />
              <mxPoint x="530" y="196" />
            </Array>
          </mxGeometry>
        </mxCell>
        <mxCell id="Jk30d8GXU3tT7Ml_PZad-3" value="0.0&lt;div&gt;Music On&lt;/div&gt;" style="ellipse;whiteSpace=wrap;html=1;aspect=fixed;" vertex="1" parent="1">
          <mxGeometry x="380" y="165" width="110" height="110" as="geometry" />
        </mxCell>
        <mxCell id="Jk30d8GXU3tT7Ml_PZad-4" style="edgeStyle=orthogonalEdgeStyle;rounded=0;orthogonalLoop=1;jettySize=auto;html=1;exitX=1;exitY=0.25;exitDx=0;exitDy=0;entryX=0;entryY=0.366;entryDx=0;entryDy=0;entryPerimeter=0;" edge="1" parent="1" source="Jk30d8GXU3tT7Ml_PZad-1" target="Jk30d8GXU3tT7Ml_PZad-3">
          <mxGeometry relative="1" as="geometry" />
        </mxCell>
        <mxCell id="Jk30d8GXU3tT7Ml_PZad-5" value="Manages music lists" style="text;strokeColor=none;align=center;fillColor=none;html=1;verticalAlign=middle;whiteSpace=wrap;rounded=0;" vertex="1" parent="1">
          <mxGeometry x="250" y="180" width="120" height="30" as="geometry" />
        </mxCell>
        <mxCell id="Jk30d8GXU3tT7Ml_PZad-8" value="" style="endArrow=classic;html=1;rounded=0;exitX=1;exitY=0.75;exitDx=0;exitDy=0;entryX=0.009;entryY=0.635;entryDx=0;entryDy=0;entryPerimeter=0;" edge="1" parent="1" source="Jk30d8GXU3tT7Ml_PZad-1" target="Jk30d8GXU3tT7Ml_PZad-3">
          <mxGeometry width="50" height="50" relative="1" as="geometry">
            <mxPoint x="270" y="290" as="sourcePoint" />
            <mxPoint x="320" y="240" as="targetPoint" />
          </mxGeometry>
        </mxCell>
        <mxCell id="Jk30d8GXU3tT7Ml_PZad-9" value="Manages artists lists" style="text;strokeColor=none;align=center;fillColor=none;html=1;verticalAlign=middle;whiteSpace=wrap;rounded=0;" vertex="1" parent="1">
          <mxGeometry x="250" y="210" width="120" height="30" as="geometry" />
        </mxCell>
        <mxCell id="Jk30d8GXU3tT7Ml_PZad-11" value="Get user details" style="text;strokeColor=none;align=center;fillColor=none;html=1;verticalAlign=middle;whiteSpace=wrap;rounded=0;" vertex="1" parent="1">
          <mxGeometry x="240" y="280" width="100" height="30" as="geometry" />
        </mxCell>
        <mxCell id="Jk30d8GXU3tT7Ml_PZad-14" value="stream songs&amp;nbsp;" style="text;strokeColor=none;align=center;fillColor=none;html=1;verticalAlign=middle;whiteSpace=wrap;rounded=0;" vertex="1" parent="1">
          <mxGeometry x="515" y="190" width="90" height="30" as="geometry" />
        </mxCell>
        <mxCell id="Jk30d8GXU3tT7Ml_PZad-15" style="edgeStyle=orthogonalEdgeStyle;rounded=0;orthogonalLoop=1;jettySize=auto;html=1;entryX=0;entryY=0.75;entryDx=0;entryDy=0;exitX=0.991;exitY=0.604;exitDx=0;exitDy=0;exitPerimeter=0;" edge="1" parent="1" source="Jk30d8GXU3tT7Ml_PZad-3" target="Jk30d8GXU3tT7Ml_PZad-2">
          <mxGeometry relative="1" as="geometry">
            <mxPoint x="500" y="230" as="sourcePoint" />
            <mxPoint x="650" y="230" as="targetPoint" />
            <Array as="points">
              <mxPoint x="489" y="235" />
            </Array>
          </mxGeometry>
        </mxCell>
        <mxCell id="Jk30d8GXU3tT7Ml_PZad-16" value="recommended music list" style="text;strokeColor=none;align=center;fillColor=none;html=1;verticalAlign=middle;whiteSpace=wrap;rounded=0;" vertex="1" parent="1">
          <mxGeometry x="490" y="230" width="140" height="30" as="geometry" />
        </mxCell>
        <mxCell id="Jk30d8GXU3tT7Ml_PZad-18" value="creates playlist" style="text;strokeColor=none;align=center;fillColor=none;html=1;verticalAlign=middle;whiteSpace=wrap;rounded=0;" vertex="1" parent="1">
          <mxGeometry x="500" y="100" width="100" height="30" as="geometry" />
        </mxCell>
      </root>
    </mxGraphModel>
  </diagram>
</mxfile>
